<?xml version="1.0" encoding="UTF-8" standalone="no"?><!DOCTYPE svg PUBLIC "-//W3C//DTD SVG 1.1//EN" "http://www.w3.org/Graphics/SVG/1.1/DTD/svg11.dtd"><!-- Generated by graphviz version 2.40.1 (20161225.0304)
 --><!-- Title: mygraph Pages: 1 --><svg xmlns="http://www.w3.org/2000/svg" xmlns:xlink="http://www.w3.org/1999/xlink" width="89pt" height="116pt" viewBox="0.00 0.00 88.92 116.00">
<g id="graph0" class="graph" transform="scale(1 1) rotate(0) translate(4 112)">
<title>mygraph</title>
<polygon fill="#ffffff" stroke="transparent" points="-4,4 -4,-112 84.925,-112 84.925,4 -4,4"/>
<!-- cycle 199 -->
<g id="node1" class="node">
<title>cycle 199</title>
<polygon fill="none" stroke="#000000" points="75.4969,-108 5.4281,-108 5.4281,-72 75.4969,-72 75.4969,-108"/>
<text text-anchor="middle" x="40.4625" y="-85.8" font-family="Times,serif" font-size="14.00" fill="#000000">cycle 199</text>
</g>
<!-- bicycle 198 -->
<g id="node2" class="node">
<title>bicycle 198</title>
<polygon fill="none" stroke="#000000" points="80.8875,-36 .0375,-36 .0375,0 80.8875,0 80.8875,-36"/>
<text text-anchor="middle" x="40.4625" y="-13.8" font-family="Times,serif" font-size="14.00" fill="#000000">bicycle 198</text>
</g>
<!-- cycle 199&#45;&gt;bicycle 198 -->
<g id="edge1" class="edge">
<title>cycle 199-&gt;bicycle 198</title>
<path fill="none" stroke="#000000" d="M34.5101,-71.8314C33.7597,-64.131 33.5388,-54.9743 33.8474,-46.4166"/>
<polygon fill="#000000" stroke="#000000" points="37.3417,-46.6161 34.4865,-36.4133 30.356,-46.1697 37.3417,-46.6161"/>
</g>
<!-- bicycle 198&#45;&gt;cycle 199 -->
<g id="edge2" class="edge">
<title>bicycle 198-&gt;cycle 199</title>
<path fill="none" stroke="#000000" d="M46.4385,-36.4133C47.1696,-44.0593 47.3828,-53.1084 47.078,-61.5726"/>
<polygon fill="#000000" stroke="#000000" points="43.5673,-61.6264 46.4149,-71.8314 50.5527,-62.078 43.5673,-61.6264"/>
</g>
</g>
</svg>