<?xml version="1.0" encoding="UTF-8" standalone="no"?><!DOCTYPE svg PUBLIC "-//W3C//DTD SVG 1.1//EN" "http://www.w3.org/Graphics/SVG/1.1/DTD/svg11.dtd"><!-- Generated by graphviz version 2.40.1 (20161225.0304)
 --><!-- Title: mygraph Pages: 1 --><svg xmlns="http://www.w3.org/2000/svg" xmlns:xlink="http://www.w3.org/1999/xlink" width="134pt" height="404pt" viewBox="0.00 0.00 134.00 404.00">
<g id="graph0" class="graph" transform="scale(1 1) rotate(0) translate(4 400)">
<title>mygraph</title>
<polygon fill="#ffffff" stroke="transparent" points="-4,4 -4,-400 130,-400 130,4 -4,4"/>
<!-- fib 6 -->
<g id="node1" class="node">
<title>fib 6</title>
<polygon fill="none" stroke="#000000" points="98,-396 44,-396 44,-360 98,-360 98,-396"/>
<text text-anchor="middle" x="71" y="-373.8" font-family="Times,serif" font-size="14.00" fill="#000000">fib 6</text>
</g>
<!-- fib 5 -->
<g id="node2" class="node">
<title>fib 5</title>
<polygon fill="none" stroke="#000000" points="126,-324 72,-324 72,-288 126,-288 126,-324"/>
<text text-anchor="middle" x="99" y="-301.8" font-family="Times,serif" font-size="14.00" fill="#000000">fib 5</text>
</g>
<!-- fib 6&#45;&gt;fib 5 -->
<g id="edge1" class="edge">
<title>fib 6-&gt;fib 5</title>
<path fill="none" stroke="#000000" d="M78.0656,-359.8314C81.126,-351.9617 84.7779,-342.5712 88.1682,-333.8533"/>
<polygon fill="#000000" stroke="#000000" points="91.4768,-335.0019 91.8393,-324.4133 84.9527,-332.4647 91.4768,-335.0019"/>
</g>
<!-- fib 4 -->
<g id="node3" class="node">
<title>fib 4</title>
<polygon fill="none" stroke="#000000" points="71,-252 17,-252 17,-216 71,-216 71,-252"/>
<text text-anchor="middle" x="44" y="-229.8" font-family="Times,serif" font-size="14.00" fill="#000000">fib 4</text>
</g>
<!-- fib 6&#45;&gt;fib 4 -->
<g id="edge2" class="edge">
<title>fib 6-&gt;fib 4</title>
<path fill="none" stroke="#000000" d="M67.5804,-359.7623C62.9549,-335.0928 54.6612,-290.8598 49.245,-261.9731"/>
<polygon fill="#000000" stroke="#000000" points="52.6748,-261.2733 47.3918,-252.0896 45.7947,-262.5634 52.6748,-261.2733"/>
</g>
<!-- fib 5&#45;&gt;fib 4 -->
<g id="edge3" class="edge">
<title>fib 5-&gt;fib 4</title>
<path fill="none" stroke="#000000" d="M85.1212,-287.8314C78.7864,-279.5386 71.1616,-269.557 64.2074,-260.4533"/>
<polygon fill="#000000" stroke="#000000" points="66.9175,-258.2353 58.0657,-252.4133 61.3548,-262.4847 66.9175,-258.2353"/>
</g>
<!-- fib 3 -->
<g id="node4" class="node">
<title>fib 3</title>
<polygon fill="none" stroke="#000000" points="126,-180 72,-180 72,-144 126,-144 126,-180"/>
<text text-anchor="middle" x="99" y="-157.8" font-family="Times,serif" font-size="14.00" fill="#000000">fib 3</text>
</g>
<!-- fib 5&#45;&gt;fib 3 -->
<g id="edge4" class="edge">
<title>fib 5-&gt;fib 3</title>
<path fill="none" stroke="#000000" d="M99,-287.7623C99,-263.201 99,-219.2474 99,-190.3541"/>
<polygon fill="#000000" stroke="#000000" points="102.5001,-190.0896 99,-180.0896 95.5001,-190.0897 102.5001,-190.0896"/>
</g>
<!-- fib 4&#45;&gt;fib 3 -->
<g id="edge5" class="edge">
<title>fib 4-&gt;fib 3</title>
<path fill="none" stroke="#000000" d="M57.8788,-215.8314C64.2136,-207.5386 71.8384,-197.557 78.7926,-188.4533"/>
<polygon fill="#000000" stroke="#000000" points="81.6452,-190.4847 84.9343,-180.4133 76.0825,-186.2353 81.6452,-190.4847"/>
</g>
<!-- fib 2 -->
<g id="node5" class="node">
<title>fib 2</title>
<polygon fill="none" stroke="#000000" points="71,-108 17,-108 17,-72 71,-72 71,-108"/>
<text text-anchor="middle" x="44" y="-85.8" font-family="Times,serif" font-size="14.00" fill="#000000">fib 2</text>
</g>
<!-- fib 4&#45;&gt;fib 2 -->
<g id="edge6" class="edge">
<title>fib 4-&gt;fib 2</title>
<path fill="none" stroke="#000000" d="M44,-215.7623C44,-191.201 44,-147.2474 44,-118.3541"/>
<polygon fill="#000000" stroke="#000000" points="47.5001,-118.0896 44,-108.0896 40.5001,-118.0897 47.5001,-118.0896"/>
</g>
<!-- fib 3&#45;&gt;fib 2 -->
<g id="edge7" class="edge">
<title>fib 3-&gt;fib 2</title>
<path fill="none" stroke="#000000" d="M85.1212,-143.8314C78.7864,-135.5386 71.1616,-125.557 64.2074,-116.4533"/>
<polygon fill="#000000" stroke="#000000" points="66.9175,-114.2353 58.0657,-108.4133 61.3548,-118.4847 66.9175,-114.2353"/>
</g>
<!-- fib 1 -->
<g id="node6" class="node">
<title>fib 1</title>
<polygon fill="none" stroke="#000000" points="126,-36 72,-36 72,0 126,0 126,-36"/>
<text text-anchor="middle" x="99" y="-13.8" font-family="Times,serif" font-size="14.00" fill="#000000">fib 1</text>
</g>
<!-- fib 3&#45;&gt;fib 1 -->
<g id="edge8" class="edge">
<title>fib 3-&gt;fib 1</title>
<path fill="none" stroke="#000000" d="M99,-143.7623C99,-119.201 99,-75.2474 99,-46.3541"/>
<polygon fill="#000000" stroke="#000000" points="102.5001,-46.0896 99,-36.0896 95.5001,-46.0897 102.5001,-46.0896"/>
</g>
<!-- fib 2&#45;&gt;fib 1 -->
<g id="edge9" class="edge">
<title>fib 2-&gt;fib 1</title>
<path fill="none" stroke="#000000" d="M57.8788,-71.8314C64.2136,-63.5386 71.8384,-53.557 78.7926,-44.4533"/>
<polygon fill="#000000" stroke="#000000" points="81.6452,-46.4847 84.9343,-36.4133 76.0825,-42.2353 81.6452,-46.4847"/>
</g>
<!-- fib 0 -->
<g id="node7" class="node">
<title>fib 0</title>
<polygon fill="none" stroke="#000000" points="54,-36 0,-36 0,0 54,0 54,-36"/>
<text text-anchor="middle" x="27" y="-13.8" font-family="Times,serif" font-size="14.00" fill="#000000">fib 0</text>
</g>
<!-- fib 2&#45;&gt;fib 0 -->
<g id="edge10" class="edge">
<title>fib 2-&gt;fib 0</title>
<path fill="none" stroke="#000000" d="M39.7102,-71.8314C37.892,-64.131 35.7301,-54.9743 33.7095,-46.4166"/>
<polygon fill="#000000" stroke="#000000" points="37.0519,-45.3414 31.3476,-36.4133 30.2392,-46.95 37.0519,-45.3414"/>
</g>
</g>
</svg>